<?xml version="1.0" standalone="no"?>
<!DOCTYPE svg PUBLIC "-//W3C//DTD SVG 20010904//EN"
 "http://www.w3.org/TR/2001/REC-SVG-20010904/DTD/svg10.dtd">
<svg version="1.0" xmlns="http://www.w3.org/2000/svg"
 width="1200.000000pt" height="1200.000000pt" viewBox="0 0 1200.000000 1200.000000"
 preserveAspectRatio="xMidYMid meet">

<g transform="translate(0.000000,1200.000000) scale(0.100000,-0.100000)"
fill="#000000" stroke="none">
<path d="M5860 10553 c-87 -5 -410 -42 -502 -58 -474 -80 -936 -241 -1408
-491 -597 -317 -1028 -678 -1477 -1239 -424 -530 -701 -1110 -858 -1798 -93
-407 -125 -786 -106 -1237 13 -286 39 -479 101 -755 97 -427 194 -698 379
-1056 162 -316 322 -554 585 -869 229 -274 385 -423 711 -675 304 -236 720
-466 1157 -639 332 -131 626 -205 1036 -258 235 -30 264 -32 597 -32 322 -1
369 1 590 27 559 65 1016 198 1514 439 226 110 519 287 696 421 140 106 406
341 541 479 233 238 472 540 626 793 262 429 421 818 544 1335 43 179 53 232
79 427 39 286 51 544 37 792 -10 172 -45 489 -68 606 -112 580 -282 1029 -596
1570 -50 88 -160 245 -252 364 -45 57 -90 115 -100 130 -55 74 -207 241 -336
371 -324 323 -699 598 -1120 818 -302 158 -611 283 -935 376 -105 30 -171 46
-375 87 -93 19 -441 60 -585 69 -142 9 -353 10 -475 3z m665 -343 c144 -16
467 -75 596 -110 881 -240 1637 -713 2224 -1391 253 -293 487 -657 638 -994
57 -129 163 -410 172 -458 7 -36 6 -38 -31 -53 -154 -63 -347 -147 -461 -200
-28 -13 -54 -24 -58 -24 -3 0 -34 -13 -68 -29 -63 -30 -190 -86 -332 -148 -44
-20 -114 -50 -155 -68 -196 -87 -273 -116 -280 -108 -8 8 -75 212 -82 246 -4
22 22 37 192 112 69 30 139 62 155 70 17 8 77 35 135 60 58 26 123 55 145 65
42 19 176 80 330 149 49 22 91 44 93 50 10 31 -171 415 -275 584 -254 411
-605 807 -961 1085 -359 279 -714 468 -1197 635 -470 163 -1011 235 -1480 197
-678 -55 -1324 -285 -1930 -686 -230 -152 -513 -406 -729 -654 -88 -101 -258
-325 -344 -451 -156 -233 -281 -475 -257 -498 6 -5 80 -39 165 -77 85 -37 385
-174 665 -304 281 -130 565 -261 633 -291 67 -29 122 -59 122 -65 0 -7 -14
-43 -31 -80 -17 -38 -44 -97 -60 -131 l-28 -63 -98 49 c-54 26 -150 72 -213
101 -193 88 -212 97 -315 145 -55 26 -109 51 -120 55 -11 4 -141 64 -290 133
-148 68 -337 155 -420 192 -82 37 -168 76 -190 86 -22 10 -89 41 -150 68 -60
28 -111 57 -113 65 -11 51 210 486 392 771 287 449 772 950 1181 1219 384 253
724 422 1140 566 272 94 678 174 990 194 106 7 597 -3 700 -14z m1673 -1500
c137 -23 254 -108 310 -228 27 -56 27 -60 30 -304 l4 -248 -2396 0 -2396 0 0
218 c0 165 4 232 16 277 38 149 141 247 294 281 71 16 4040 20 4138 4z m-3693
-1130 l0 -185 -185 0 -185 0 1 71 c3 128 45 223 115 260 46 24 140 43 199 41
l55 -2 0 -185z m283 -217 l-3 -408 -70 -3 c-38 -2 -80 0 -92 3 l-23 5 0 405 0
405 95 0 95 0 -2 -407z m302 386 c59 -18 122 -81 144 -144 9 -27 19 -87 23
-132 l6 -83 -184 2 -184 3 -3 189 -2 189 77 -5 c43 -3 98 -12 123 -19z m3033
-180 c73 -34 75 -152 3 -200 -32 -22 -1619 -26 -1671 -5 -40 17 -75 68 -75
109 0 35 24 82 47 93 49 24 1646 27 1696 3z m-2866 -286 c10 -25 -15 -159 -36
-201 -44 -85 -105 -118 -240 -128 l-91 -7 0 174 0 174 181 2 c155 1 181 -1
186 -14z m-747 -164 l0 -172 -87 6 c-171 11 -238 63 -277 213 -9 34 -16 76
-16 93 l0 31 190 0 190 0 0 -171z m1920 -157 c58 -22 186 -75 285 -117 99 -42
243 -103 320 -135 77 -32 232 -96 345 -143 113 -46 236 -97 273 -112 l69 -27
111 47 c62 25 119 49 128 52 13 4 45 -82 183 -495 91 -275 166 -509 166 -520
0 -15 192 -611 259 -805 9 -25 7 -30 -20 -46 -16 -10 -60 -30 -99 -46 l-69
-28 -38 29 c-21 16 -122 99 -225 184 -220 183 -294 243 -468 383 -9 6 -40 33
-70 58 -30 25 -194 157 -365 293 -170 136 -395 317 -500 401 -252 203 -369
290 -430 319 -73 34 -164 50 -248 43 -123 -10 -183 -38 -377 -177 -34 -25 -75
-54 -91 -65 -15 -11 -96 -69 -179 -130 -222 -161 -275 -193 -345 -206 -72 -13
-150 -7 -199 16 -48 23 -115 91 -137 140 -24 52 -24 92 1 159 29 76 87 126
391 339 140 98 288 202 329 232 41 30 118 83 170 120 52 36 140 97 195 136
177 125 248 150 415 145 107 -3 122 -6 220 -44z m2144 -455 c44 -133 121 -368
172 -522 50 -154 145 -442 209 -640 64 -198 148 -454 186 -568 39 -115 69
-215 67 -224 -3 -14 -225 -112 -255 -113 -7 0 -16 15 -22 33 -5 17 -63 192
-129 387 -140 415 -439 1321 -505 1530 -73 229 -73 229 -56 244 15 15 228 116
244 116 6 0 46 -109 89 -243z m-4128 179 c108 -45 164 -75 164 -85 0 -14 -44
-113 -286 -641 -96 -212 -225 -493 -286 -625 -60 -132 -116 -253 -123 -270
-18 -37 -238 -522 -267 -587 -12 -27 -23 -48 -24 -48 -8 0 -250 113 -258 121
-6 5 17 65 56 151 37 79 73 159 81 178 8 19 94 206 192 415 97 209 187 405
200 435 20 47 213 463 357 770 25 52 58 123 73 158 15 34 31 62 34 62 4 0 43
-15 87 -34z m1754 -731 c61 -26 185 -116 421 -305 86 -69 192 -152 234 -185
120 -92 532 -418 605 -478 36 -29 191 -154 345 -277 154 -123 323 -258 374
-299 52 -42 104 -91 114 -109 28 -48 34 -150 12 -207 -36 -95 -105 -145 -199
-145 -60 0 -107 26 -215 119 -31 27 -108 90 -171 141 -63 51 -213 172 -333
269 -298 242 -302 244 -354 237 -24 -3 -51 -11 -62 -17 -28 -18 -71 -89 -71
-120 0 -47 42 -91 226 -239 99 -80 245 -199 324 -265 78 -66 169 -140 201
-165 31 -25 67 -57 78 -72 53 -67 64 -145 31 -213 -27 -56 -52 -82 -102 -105
-85 -39 -148 -21 -265 76 -39 32 -135 111 -213 174 -78 63 -205 168 -283 233
-159 133 -210 162 -265 152 -83 -16 -122 -58 -122 -135 0 -22 7 -52 16 -65 17
-27 183 -167 329 -280 50 -38 118 -92 152 -120 33 -27 80 -65 103 -84 61 -49
80 -85 80 -154 0 -83 -44 -156 -85 -141 -15 6 -13 9 11 20 16 7 23 13 15 13
-11 1 -11 4 0 18 10 11 11 17 3 20 -7 2 -10 13 -7 23 6 23 0 25 -29 9 -18 -10
-20 -9 -14 6 5 14 2 16 -16 10 -22 -6 -41 -6 -173 0 -63 3 -94 -3 -77 -14 6
-3 0 -11 -13 -17 -22 -11 -23 -10 -14 13 12 32 3 44 -27 37 -15 -4 -24 -2 -24
6 0 7 -8 9 -22 5 -23 -7 -23 -7 -3 9 19 15 19 16 -7 6 -18 -6 -28 -6 -28 0 0
6 5 10 10 10 6 0 10 7 10 16 0 13 -3 14 -14 5 -19 -16 -32 4 -16 24 7 9 8 15
0 20 -5 3 -10 0 -10 -8 0 -10 -7 -14 -22 -11 -20 4 -21 3 -4 -4 15 -6 16 -11
7 -16 -7 -5 -21 0 -34 12 -12 10 -33 29 -47 40 -39 32 -67 58 -53 48 18 -12
16 4 -4 26 -9 11 -11 18 -5 18 7 0 12 5 12 10 0 14 -37 13 -46 -2 -4 -7 -3 -8
4 -4 7 4 12 3 12 -2 0 -23 -17 -18 -65 21 -29 23 -76 60 -104 82 -43 33 -49
42 -37 51 12 9 9 11 -15 11 -19 0 -25 -3 -17 -9 7 -4 9 -8 3 -8 -24 0 -38 19
-31 44 6 25 5 26 -38 26 -25 0 -47 -4 -50 -9 -4 -5 11 -7 34 -4 30 4 40 2 40
-8 0 -10 -15 -14 -55 -14 l-55 0 0 71 c0 45 -8 98 -21 140 -19 61 -29 77 -95
141 -55 53 -87 76 -126 89 -56 19 -164 24 -234 12 l-41 -8 -10 58 c-35 185
-181 318 -363 329 -71 5 -107 -1 -217 -35 -31 -10 -33 -9 -54 35 -32 66 -132
164 -204 199 -56 27 -68 29 -180 29 -79 0 -132 -5 -155 -14 -84 -33 -188 -120
-221 -183 -10 -20 -23 -39 -29 -43 -12 -7 -130 102 -130 120 0 7 15 46 34 86
19 41 67 146 106 234 40 88 86 189 102 225 17 36 39 90 49 121 20 59 157 354
182 389 13 19 16 18 50 -38 69 -112 193 -199 316 -222 78 -15 206 -12 281 6
100 23 166 64 551 342 79 57 163 115 188 130 113 66 233 80 331 37z m-3452
-515 c129 -79 74 -280 -76 -280 -72 0 -135 47 -153 113 -33 124 117 235 229
167z m7279 -122 c78 -73 32 -177 -73 -165 -68 7 -99 42 -99 108 0 44 4 54 32
79 32 29 33 29 75 14 23 -8 53 -24 65 -36z m-5412 -847 c84 -39 125 -118 103
-198 -9 -33 -87 -131 -192 -241 -28 -29 -52 -57 -54 -62 -2 -5 -26 -28 -54
-50 -41 -33 -58 -40 -94 -40 -79 0 -132 33 -165 105 -38 83 -20 133 93 260 30
33 71 83 91 112 87 120 178 158 272 114z m614 -231 c81 -41 115 -119 91 -206
-9 -31 -34 -69 -79 -120 -36 -41 -127 -144 -201 -228 -168 -191 -201 -210
-297 -167 -52 24 -94 84 -100 145 -7 61 20 114 105 207 37 41 78 90 92 109 42
59 200 234 233 258 40 28 104 29 156 2z m499 -365 c101 -43 141 -143 89 -226
-19 -32 -111 -142 -295 -353 -103 -118 -144 -156 -179 -162 -100 -19 -202 71
-203 179 0 54 20 89 101 182 38 44 112 130 163 190 117 139 171 193 199 198
47 9 89 6 125 -8z m443 -493 c46 -33 83 -108 73 -149 -9 -38 -33 -71 -135
-188 -198 -227 -208 -235 -285 -235 -85 0 -152 59 -161 143 -8 65 1 88 55 155
73 91 265 293 287 303 36 16 124 1 166 -29z m584 -110 c-3 -3 -11 0 -18 7 -9
10 -8 11 6 5 10 -3 15 -9 12 -12z m59 -38 c3 -8 2 -12 -4 -9 -6 3 -10 10 -10
16 0 14 7 11 14 -7z m296 -68 c0 -3 -4 -8 -10 -11 -5 -3 -10 -1 -10 4 0 6 5
11 10 11 6 0 10 -2 10 -4z m-103 -32 c-3 -3 -12 -4 -19 -1 -8 3 -5 6 6 6 11 1
17 -2 13 -5z m-443 -94 c149 -95 90 -337 -87 -357 -70 -8 -110 4 -177 53 l-61
45 27 32 c51 62 236 257 243 257 4 0 28 -14 55 -30z"/>
<path d="M6274 3722 c0 -11 8 -17 22 -17 24 0 22 10 -4 24 -14 7 -18 5 -18 -7z"/>
<path d="M6245 3720 c-3 -5 -1 -10 4 -10 6 0 11 5 11 10 0 6 -2 10 -4 10 -3 0
-8 -4 -11 -10z"/>
<path d="M6325 3680 c-13 -5 -14 -9 -5 -9 8 0 24 4 35 9 13 5 14 9 5 9 -8 0
-24 -4 -35 -9z"/>
<path d="M6270 3666 c0 -2 7 -7 16 -10 8 -3 12 -2 9 4 -6 10 -25 14 -25 6z"/>
<path d="M6365 3600 c3 -5 8 -10 11 -10 2 0 4 5 4 10 0 6 -5 10 -11 10 -5 0
-7 -4 -4 -10z"/>
<path d="M6443 3593 c-3 -10 -8 -22 -11 -27 -3 -5 2 -7 10 -3 9 3 19 3 22 -1
4 -3 14 -7 22 -8 34 -5 44 -13 37 -31 -3 -10 -4 -16 -2 -13 44 53 43 49 19 43
-14 -4 -20 -1 -18 8 2 8 -4 14 -13 14 -9 0 -24 8 -33 18 -22 21 -25 21 -33 0z"/>
<path d="M6556 3532 c-3 -4 9 -13 26 -20 l31 -11 -21 19 c-23 22 -28 24 -36
12z"/>
<path d="M6540 3491 c0 -25 6 -27 13 -6 4 8 2 17 -3 20 -6 4 -10 -3 -10 -14z"/>
<path d="M6557 3470 c-15 -18 -14 -24 6 -21 4 0 7 -3 7 -9 0 -5 5 -10 10 -10
14 0 12 28 -2 33 -7 2 -10 8 -6 12 4 4 14 2 22 -4 8 -7 17 -8 20 -3 3 6 -1 13
-10 16 -24 9 -28 8 -47 -14z"/>
<path d="M6606 3436 c-10 -15 -12 -27 -6 -31 6 -3 10 -1 10 6 0 7 7 21 17 31
9 10 11 18 6 18 -6 0 -18 -11 -27 -24z"/>
<path d="M6650 3438 c0 -6 3 -8 6 -5 4 3 18 -3 32 -13 13 -11 30 -20 36 -20 6
0 -6 11 -26 25 -42 28 -48 30 -48 13z"/>
</g>
</svg>
